<?xml version="1.0" encoding="UTF-8" standalone="no"?>
<!-- Created with Inkscape (http://www.inkscape.org/) -->

<svg
   width="200"
   height="100"
   viewBox="0 0 200 100"
   version="1.1"
   id="svg5"
   sodipodi:docname="Gold_Sparxworks_Logo.svg"
   inkscape:version="1.1.2 (b8e25be833, 2022-02-05)"
   inkscape:export-filename="D:\09 - Web Development\femdevs-web\assets\img\sponsors\Gold_Sparxworks_Logo_Dark.png"
   inkscape:export-xdpi="384"
   inkscape:export-ydpi="384"
   xmlns:inkscape="http://www.inkscape.org/namespaces/inkscape"
   xmlns:sodipodi="http://sodipodi.sourceforge.net/DTD/sodipodi-0.dtd"
   xmlns="http://www.w3.org/2000/svg"
   xmlns:svg="http://www.w3.org/2000/svg">
  <sodipodi:namedview
     id="namedview7"
     pagecolor="#ffffff"
     bordercolor="#111111"
     borderopacity="1"
     inkscape:pageshadow="0"
     inkscape:pageopacity="0"
     inkscape:pagecheckerboard="1"
     inkscape:document-units="px"
     showgrid="false"
     units="px"
     showguides="true"
     inkscape:guide-bbox="true"
     inkscape:lockguides="false"
     inkscape:zoom="0.13086758"
     inkscape:cx="34.385903"
     inkscape:cy="-168.10886"
     inkscape:window-width="1218"
     inkscape:window-height="697"
     inkscape:window-x="1912"
     inkscape:window-y="687"
     inkscape:window-maximized="1"
     inkscape:current-layer="layer1">
    <sodipodi:guide
       position="100,50"
       orientation="-1,0"
       id="guide836"
       inkscape:label=""
       inkscape:locked="false"
       inkscape:color="rgb(0,0,255)" />
    <sodipodi:guide
       position="0,0"
       orientation="0,1"
       id="guide969"
       inkscape:label=""
       inkscape:locked="false"
       inkscape:color="rgb(0,0,255)" />
    <sodipodi:guide
       position="0,50"
       orientation="0,1"
       id="guide973"
       inkscape:label=""
       inkscape:locked="false"
       inkscape:color="rgb(0,0,255)" />
  </sodipodi:namedview>
  <defs
     id="defs2">
    <filter
       style="color-interpolation-filters:sRGB"
       inkscape:label="Brilliance"
       id="filter3042"
       x="0"
       y="0"
       width="1"
       height="1">
      <feColorMatrix
         type="hueRotate"
         values="180"
         result="color1"
         id="feColorMatrix3038" />
      <feColorMatrix
         values="-1 0 0 0 1 0 -1 0 0 1 0 0 -1 0 1 -0.21 -0.72 -0.07 2 0 "
         result="fbSourceGraphic"
         id="feColorMatrix3040" />
      <feColorMatrix
         result="fbSourceGraphicAlpha"
         in="fbSourceGraphic"
         values="0 0 0 -1 0 0 0 0 -1 0 0 0 0 -1 0 0 0 0 1 0"
         id="feColorMatrix3098" />
      <feColorMatrix
         id="feColorMatrix3100"
         values="10 -0 -0 0 10 -0 10 -0 0 10 -0 -0 10 0 10 0 0 0 1 0 "
         in="fbSourceGraphic"
         result="fbSourceGraphic" />
      <feColorMatrix
         result="fbSourceGraphicAlpha"
         in="fbSourceGraphic"
         values="0 0 0 -1 0 0 0 0 -1 0 0 0 0 -1 0 0 0 0 1 0"
         id="feColorMatrix3120" />
      <feColorMatrix
         id="feColorMatrix3122"
         values="10 -0 -0 0 10 -0 10 -0 0 10 -0 -0 10 0 10 0 0 0 1 0 "
         in="fbSourceGraphic" />
    </filter>
    <filter
       style="color-interpolation-filters:sRGB;"
       inkscape:label="Colorize"
       id="filter874"
       x="0"
       y="0"
       width="1"
       height="1">
      <feComposite
         in2="SourceGraphic"
         operator="arithmetic"
         k1="0"
         k2="1"
         result="composite1"
         id="feComposite860" />
      <feColorMatrix
         in="composite1"
         values="1"
         type="saturate"
         result="colormatrix1"
         id="feColorMatrix862" />
      <feFlood
         flood-opacity="1"
         flood-color="rgb(0,0,0)"
         result="flood1"
         id="feFlood864" />
      <feBlend
         in="flood1"
         in2="colormatrix1"
         mode="multiply"
         result="blend1"
         id="feBlend866" />
      <feBlend
         in2="blend1"
         mode="screen"
         result="blend2"
         id="feBlend868" />
      <feColorMatrix
         in="blend2"
         values="1"
         type="saturate"
         result="colormatrix2"
         id="feColorMatrix870" />
      <feComposite
         in="colormatrix2"
         in2="SourceGraphic"
         operator="in"
         k2="1"
         result="composite2"
         id="feComposite872" />
    </filter>
  </defs>
  <g
     inkscape:label="Layer 1"
     inkscape:groupmode="layer"
     id="layer1"
     style="display:inline">
    <g
       transform="matrix(0.4707981,0,0,0.4707981,-17.10672,-67.230169)"
       id="g58"
       style="clip-rule:evenodd;fill-rule:evenodd;stroke-linejoin:round;stroke-miterlimit:2;filter:url(#filter874)"
       inkscape:export-filename="D:\09 - Web Development\femdevs-web\assets\img\sponsors\Gold_Sparxworks_Logo_Light.png"
       inkscape:export-xdpi="384"
       inkscape:export-ydpi="384">
      <g
         transform="translate(122.343,239.608)"
         id="g4">
        <path
           d="m 0,20.148 2.852,-4.202 c 1.375,0.951 2.795,1.77 4.258,2.458 1.464,0.688 2.995,1.031 4.597,1.031 0.85,0 1.6,-0.105 2.251,-0.318 0.65,-0.213 1.2,-0.489 1.651,-0.826 0.45,-0.337 0.787,-0.725 1.013,-1.163 0.225,-0.438 0.337,-0.87 0.337,-1.294 0,-0.55 -0.168,-1.019 -0.506,-1.408 C 16.115,14.039 15.665,13.72 15.102,13.469 14.539,13.219 13.876,13.007 13.114,12.832 12.35,12.657 11.557,12.494 10.731,12.343 10.181,12.244 9.542,12.126 8.817,11.988 8.092,11.85 7.341,11.663 6.566,11.424 5.791,11.187 5.028,10.875 4.277,10.487 3.527,10.099 2.852,9.611 2.251,9.023 1.651,8.436 1.169,7.736 0.807,6.922 0.444,6.11 0.263,5.153 0.263,4.051 c 0,-1.6 0.324,-2.931 0.975,-3.996 0.65,-1.062 1.482,-1.9 2.495,-2.513 1.013,-0.613 2.139,-1.044 3.377,-1.294 1.238,-0.25 2.432,-0.376 3.583,-0.376 1.151,0 2.177,0.076 3.077,0.225 0.901,0.151 1.738,0.369 2.514,0.657 0.775,0.288 1.532,0.651 2.27,1.088 0.737,0.438 1.532,0.956 2.383,1.557 L 18.01,3.527 C 16.709,2.626 15.458,1.938 14.258,1.462 13.057,0.988 11.794,0.75 10.468,0.75 10.018,0.75 9.505,0.806 8.93,0.919 8.354,1.031 7.81,1.213 7.298,1.462 6.785,1.712 6.36,2.032 6.022,2.419 5.684,2.808 5.516,3.277 5.516,3.827 c 0,0.55 0.199,1.012 0.6,1.388 0.4,0.375 0.913,0.688 1.538,0.938 0.625,0.25 1.313,0.463 2.064,0.638 0.75,0.174 1.475,0.35 2.176,0.525 0.525,0.126 1.145,0.251 1.857,0.375 0.713,0.126 1.451,0.301 2.214,0.525 0.763,0.226 1.52,0.526 2.27,0.901 0.751,0.376 1.42,0.857 2.008,1.444 0.587,0.589 1.062,1.315 1.425,2.177 0.363,0.863 0.544,1.908 0.544,3.134 0,1.424 -0.25,2.663 -0.75,3.714 -0.501,1.05 -1.213,1.919 -2.139,2.607 -0.926,0.688 -2.026,1.207 -3.302,1.558 -1.275,0.349 -2.689,0.525 -4.239,0.525 -1.427,0 -2.683,-0.107 -3.771,-0.319 C 6.922,23.745 5.928,23.457 5.028,23.093 4.127,22.731 3.276,22.3 2.476,21.799 1.675,21.299 0.85,20.749 0,20.148"
           style="fill:#ffffff;fill-rule:nonzero"
           id="path2" />
      </g>
      <g
         transform="translate(167.93,248.799)"
         id="g8">
        <path
           d="M 0,1.652 C 0.775,1.652 1.45,1.52 2.026,1.257 2.601,0.996 3.07,0.638 3.433,0.189 3.795,-0.262 4.064,-0.774 4.24,-1.35 4.415,-1.925 4.502,-2.526 4.502,-3.151 4.502,-3.776 4.39,-4.395 4.165,-5.008 3.939,-5.62 3.614,-6.164 3.189,-6.64 2.764,-7.115 2.238,-7.503 1.613,-7.804 0.988,-8.104 0.263,-8.253 -0.563,-8.253 h -6.416 v 9.905 z m 0,-14.559 c 1.351,0 2.62,0.257 3.808,0.77 1.188,0.513 2.22,1.207 3.096,2.082 0.875,0.876 1.569,1.907 2.082,3.096 0.513,1.188 0.769,2.458 0.769,3.808 C 9.755,-1.8 9.53,-0.549 9.08,0.601 8.63,1.752 7.967,2.758 7.091,3.622 6.215,4.485 5.108,5.16 3.771,5.647 2.432,6.135 0.888,6.38 -0.863,6.38 h -6.116 v 8.179 h -5.253 v -27.466 z"
           style="fill:#ffffff;fill-rule:nonzero"
           id="path6" />
      </g>
      <g
         transform="translate(191.569,244.824)"
         id="g12">
        <path
           d="M 0,9.642 H 7.842 L 3.939,1.35 Z M -10.356,18.535 3.677,-8.893 H 4.202 L 18.235,18.535 H 12.532 L 10.393,14.219 H -2.552 l -2.101,4.316 z"
           style="fill:#ffffff;fill-rule:nonzero"
           id="path10" />
      </g>
      <g
         transform="translate(223.574,249.289)"
         id="g16">
        <path
           d="m 0,0.674 h 7.218 c 0.474,0 0.966,-0.094 1.477,-0.281 0.511,-0.188 0.966,-0.475 1.365,-0.863 0.398,-0.387 0.729,-0.869 0.991,-1.445 0.262,-0.575 0.393,-1.25 0.393,-2.026 0,-0.4 -0.05,-0.875 -0.15,-1.426 -0.099,-0.55 -0.299,-1.075 -0.598,-1.575 C 10.397,-7.442 9.973,-7.867 9.424,-8.219 8.875,-8.568 8.14,-8.743 7.218,-8.743 H 0 Z M 0,14.07 H -5.253 V -13.396 H 7.225 c 1.403,0 2.688,0.232 3.853,0.694 1.165,0.463 2.161,1.113 2.987,1.951 0.827,0.838 1.473,1.839 1.936,3.002 0.464,1.163 0.696,2.433 0.696,3.808 0,2.077 -0.52,3.89 -1.56,5.441 -1.04,1.551 -2.425,2.663 -4.154,3.339 2.308,3.053 4.588,6.129 6.839,9.231 H 11.556 C 10.459,12.644 9.387,11.205 8.34,9.754 7.293,8.304 6.245,6.827 5.198,5.327 H 0 Z"
           style="fill:#ffffff;fill-rule:nonzero"
           id="path14" />
      </g>
      <g
         transform="translate(258.994,249.513)"
         id="g20">
        <path
           d="m 0,0.262 -10.431,-13.845 h 6.566 l 7.129,9.868 7.129,-9.868 h 6.529 L 6.528,0.262 16.734,13.845 H 10.168 L 3.264,4.277 -3.64,13.845 h -6.566 z"
           style="fill:#ffffff;fill-rule:nonzero"
           id="path18" />
      </g>
      <g
         transform="translate(323.448,263.288)"
         id="g24">
        <path
           d="M 0,-27.349 -9.221,0 h -3.047 L -20.277,-23.326 -28.326,0 h -3.008 l -9.22,-27.349 h 2.969 l 7.892,23.52 8.166,-23.52 h 2.695 l 8.049,23.637 8.009,-23.637 z"
           style="fill:#ffffff;fill-rule:nonzero"
           id="path22" />
      </g>
      <g
         transform="translate(350.21,239.75)"
         id="g28">
        <path
           d="M 0,19.729 C 1.744,18.752 3.112,17.398 4.102,15.667 5.091,13.934 5.587,12 5.587,9.865 5.587,7.729 5.091,5.795 4.102,4.062 3.112,2.331 1.744,0.976 0,0 c -1.746,-0.978 -3.699,-1.466 -5.861,-1.466 -2.162,0 -4.121,0.488 -5.88,1.466 -1.758,0.976 -3.139,2.331 -4.141,4.062 -1.003,1.733 -1.504,3.667 -1.504,5.803 0,2.135 0.501,4.069 1.504,5.802 1.002,1.731 2.383,3.085 4.141,4.062 1.759,0.977 3.718,1.465 5.88,1.465 2.162,0 4.115,-0.488 5.861,-1.465 m -13.225,2.227 c -2.202,-1.211 -3.921,-2.872 -5.157,-4.981 -1.238,-2.11 -1.856,-4.479 -1.856,-7.11 0,-2.631 0.618,-5.001 1.856,-7.112 1.236,-2.109 2.955,-3.77 5.157,-4.981 2.201,-1.211 4.655,-1.816 7.364,-1.816 2.709,0 5.151,0.599 7.326,1.796 2.174,1.199 3.887,2.859 5.138,4.982 1.25,2.123 1.875,4.5 1.875,7.131 0,2.631 -0.625,5.007 -1.875,7.129 -1.251,2.124 -2.964,3.784 -5.138,4.981 -2.175,1.199 -4.617,1.798 -7.326,1.798 -2.709,0 -5.163,-0.606 -7.364,-1.817"
           style="fill:#ffffff;fill-rule:nonzero"
           id="path26" />
      </g>
      <g
         transform="translate(385.45,248.871)"
         id="g32">
        <path
           d="M 0,1.485 C 1.432,0.287 2.149,-1.393 2.149,-3.556 2.149,-5.769 1.432,-7.468 0,-8.655 c -1.433,-1.184 -3.503,-1.777 -6.212,-1.777 h -7.267 V 3.282 h 7.267 c 2.709,0 4.779,-0.6 6.212,-1.797 M 2.305,14.417 -3.946,5.626 c -0.703,0.078 -1.433,0.117 -2.188,0.117 h -7.345 v 8.674 h -2.891 v -27.349 h 10.236 c 3.49,0 6.225,0.834 8.204,2.5 1.98,1.667 2.97,3.96 2.97,6.876 0,2.137 -0.541,3.94 -1.622,5.412 C 2.337,3.328 0.794,4.389 -1.211,5.04 l 6.681,9.377 z"
           style="fill:#ffffff;fill-rule:nonzero"
           id="path30" />
      </g>
      <g
         transform="translate(409.712,248.794)"
         id="g36">
        <path
           d="m 0,1.641 -5.587,5.665 v 7.189 h -2.891 v -27.349 h 2.891 V 3.672 l 16.058,-16.526 h 3.321 L 1.954,-0.469 14.612,14.495 h -3.438 z"
           style="fill:#ffffff;fill-rule:nonzero"
           id="path34" />
      </g>
      <g
         transform="translate(434.033,236.682)"
         id="g40">
        <path
           d="m 0,25.864 c -1.862,-0.651 -3.301,-1.511 -4.317,-2.579 l 1.133,-2.227 c 0.989,0.991 2.305,1.791 3.946,2.403 1.641,0.612 3.334,0.919 5.079,0.919 2.448,0 4.284,-0.451 5.509,-1.349 1.224,-0.898 1.836,-2.063 1.836,-3.496 0,-1.095 -0.332,-1.967 -0.996,-2.618 C 11.525,16.266 10.711,15.764 9.748,15.413 8.784,15.061 7.443,14.677 5.724,14.26 3.666,13.739 2.025,13.238 0.801,12.756 -0.424,12.274 -1.472,11.539 -2.344,10.549 -3.217,9.559 -3.653,8.218 -3.653,6.524 c 0,-1.38 0.364,-2.637 1.094,-3.769 0.729,-1.134 1.849,-2.038 3.36,-2.716 1.51,-0.677 3.386,-1.016 5.626,-1.016 1.563,0 3.093,0.215 4.591,0.645 1.497,0.429 2.793,1.022 3.887,1.777 L 13.928,3.751 C 12.782,2.996 11.558,2.428 10.256,2.051 8.953,1.674 7.677,1.485 6.427,1.485 c -2.397,0 -4.2,0.462 -5.411,1.387 -1.211,0.924 -1.817,2.116 -1.817,3.574 0,1.094 0.332,1.974 0.996,2.638 0.664,0.664 1.498,1.172 2.501,1.523 1.002,0.352 2.35,0.736 4.044,1.153 2.005,0.495 3.626,0.983 4.864,1.464 1.236,0.484 2.285,1.212 3.145,2.189 0.859,0.976 1.289,2.299 1.289,3.966 0,1.381 -0.371,2.636 -1.113,3.769 -0.743,1.133 -1.883,2.032 -3.419,2.696 C 9.969,26.509 8.081,26.841 5.841,26.841 3.81,26.841 1.862,26.515 0,25.864"
           style="fill:#ffffff;fill-rule:nonzero"
           id="path38" />
      </g>
      <g
         transform="translate(79.4608,223.925)"
         id="g44">
        <path
           d="m 0,14.877 c 2.053,0 3.717,-1.664 3.717,-3.717 V 3.716 C 3.717,1.664 2.053,0 0,0 -2.053,0 -3.717,1.664 -3.717,3.716 v 7.444 c 0,2.053 1.664,3.717 3.717,3.717"
           style="fill:#ffffff;fill-rule:nonzero"
           id="path42" />
      </g>
      <g
         transform="translate(83.1649,260.77)"
         id="g48">
        <path
           d="m 0,-10.897 c -0.003,-0.076 -0.005,-0.152 -0.013,-0.229 -0.008,-0.083 -0.022,-0.165 -0.035,-0.247 -0.014,-0.087 -0.029,-0.172 -0.05,-0.257 -0.016,-0.07 -0.034,-0.136 -0.054,-0.204 -0.024,-0.078 -0.051,-0.154 -0.08,-0.23 -0.031,-0.084 -0.061,-0.166 -0.099,-0.247 -0.032,-0.071 -0.069,-0.141 -0.107,-0.21 -0.019,-0.035 -0.028,-0.072 -0.048,-0.106 -0.019,-0.035 -0.047,-0.061 -0.067,-0.094 -0.043,-0.07 -0.085,-0.138 -0.132,-0.203 -0.051,-0.072 -0.107,-0.138 -0.163,-0.206 -0.051,-0.062 -0.102,-0.123 -0.156,-0.181 -0.05,-0.054 -0.101,-0.105 -0.154,-0.155 -0.063,-0.06 -0.13,-0.115 -0.198,-0.17 -0.062,-0.052 -0.124,-0.103 -0.19,-0.15 -0.065,-0.047 -0.132,-0.089 -0.2,-0.131 -0.035,-0.022 -0.064,-0.051 -0.1,-0.073 l -19.449,-11.185 c -1.778,-1.027 -4.051,-0.417 -5.078,1.361 -1.026,1.777 -0.417,4.051 1.361,5.077 l 13.875,7.967 -20.24,11.681 c -1.778,1.026 -2.387,3.299 -1.36,5.077 1.026,1.777 3.299,2.386 5.077,1.36 L -7.421,-4.333 v 15.922 c 0,2.052 1.664,3.716 3.717,3.716 2.053,0 3.717,-1.664 3.717,-3.716 V -10.77 c 0,-0.043 -0.012,-0.084 -0.013,-0.127"
           style="fill:#ffffff;fill-rule:nonzero"
           id="path46" />
      </g>
      <g
         transform="translate(89.1214,236.984)"
         id="g52">
        <path
           d="m 0,7.438 c 1.026,1.778 3.299,2.387 5.077,1.36 L 11.524,5.077 C 13.302,4.05 13.911,1.777 12.884,0 11.858,-1.778 9.585,-2.387 7.807,-1.361 L 1.36,2.361 C -0.417,3.387 -1.026,5.661 0,7.438"
           style="fill:#ffffff;fill-rule:nonzero"
           id="path50" />
      </g>
      <g
         transform="translate(89.1214,263.049)"
         id="g56">
        <path
           d="m 0,-7.438 c -1.026,1.777 -0.417,4.051 1.36,5.077 L 7.807,1.361 C 9.585,2.387 11.858,1.779 12.884,0 c 1.027,-1.777 0.418,-4.05 -1.36,-5.077 L 5.077,-8.798 C 3.299,-9.825 1.026,-9.215 0,-7.438"
           style="fill:#ffffff;fill-rule:nonzero"
           id="path54" />
      </g>
    </g>
  </g>
</svg>
