<?xml version="1.0" encoding="UTF-8"?>
<!-- Created with Inkscape (http://www.inkscape.org/) -->
<svg width="200" height="200" version="1.1" viewBox="0 0 52.917 52.917" xmlns="http://www.w3.org/2000/svg">
 <g>
  <g transform="matrix(.077509 0 0 .077509 -110.06 -27.446)" clip-rule="evenodd" fill-rule="evenodd" stroke-linejoin="round" stroke-miterlimit="2">
   <g transform="matrix(2 0 0 2 1613.5 971.46)">
    <path d="m0-49.733c0-3.617 2.948-6.566 6.645-6.566 3.712 0 6.674 2.949 6.674 6.566 0 3.629-2.962 6.492-6.674 6.492-3.697 0-6.645-2.863-6.645-6.492m-4.617 49.309h4.607c0.373 0 0.604-0.31 0.604-0.598v-28.564c0-0.308-0.251-0.628-0.604-0.628h-4.95v-7.404h17.329c0.282 0 0.605 0.199 0.605 0.697v35.899c0 0.327 0.295 0.598 0.607 0.598h4.684v6.99h-22.882z" fill="#231f20" fill-rule="nonzero"/>
   </g>
   <g transform="matrix(2 0 0 2 1705.4 886.79)">
    <path d="m0 42.168c-5.039 0-10.016-3.031-10.016-15.154 0-11.186 5.22-14.552 11.047-14.552 2.927 0 5.957 1.793 8.137 2.796v22.508c-2.433 2.106-5.289 4.402-9.168 4.402m22.062-0.255c-0.303 0-0.606-0.27-0.606-0.598v-48.108c0-0.288-0.243-0.602-0.606-0.602h-17.408v7.237h5.132c0.372 0 0.594 0.306 0.594 0.6v9.327c-2.857-3.457-6.472-5.738-12.621-5.738-8.582 0-19.012 6.675-19.012 23.326 0 16.901 9.521 22.206 18.337 22.206 6.147 0 10.439-2.351 13.296-5.628v2.353c0 1.197 0.98 2.615 2.606 2.615h14.821v-6.99z" fill="#231f20" fill-rule="nonzero"/>
   </g>
   <g transform="matrix(2 0 0 2 1821.7 916.5)">
    <path d="m0 23.765v-8.539c-1.939-0.353-4.121-0.941-6.484-0.941-4.967 0-7.996 2.008-7.996 6.478 0 4.446 2.605 6.554 6.736 6.554 3.109 0 5.643-1.61 7.744-3.552m-26.424-2.506c0-9.259 7.239-13.457 17.416-13.457 3.695 0 6.231 0.333 9.008 1.001v-4.627c0-4.459-2.454-6.471-7.665-6.552-6.895-0.116-8.844 1.773-10.177 3.951h-5.645v-8.615c0-0.161 0.051-0.426 0.383-0.564 4.082-1.78 9.563-3.191 17.883-3.191 11.44 0 17.507 3.695 17.507 13.801v23.452c0 0.338 0.224 0.596 0.577 0.596h3.887v6.991h-14.166c-1.494 0-2.584-1.24-2.584-2.621v-2.338c-3.282 4.039-6.906 5.474-12.28 5.474-8.259 0-14.144-4.542-14.144-13.301" fill="#231f20" fill-rule="nonzero"/>
   </g>
   <g transform="matrix(2 0 0 2 1863 960.36)">
    <path d="m0-32.069h4.381v-12.115h12.267v12.115h8.917v7.404h-8.917v29.193c0 0.37 0.264 0.597 0.607 0.597h8.653v6.99h-18.922c-1.658 0-2.605-1.446-2.605-2.62v-34.16h-4.381z" fill="#231f20" fill-rule="nonzero"/>
   </g>
   <g transform="matrix(2 0 0 2 1706.3 803.64)">
    <path d="m0-196.38c-13.057 0-23.647 9.613-24.01 21.599l-0.031-0.05s0.273 4.88-5.148 5.977l0.07 0.014c-10.199 2.57-17.711 11.171-17.711 21.416 0 2.52 0.475 4.932 1.313 7.193l-0.03-0.019c-0.01-0.021 0.019 0.024 0.059 0.1 0.184 0.475 0.355 0.96 0.577 1.429 0.464 1.607 0.625 4.109-1.938 5.751-0.142 0.07-0.274 0.151-0.405 0.231-0.202 0.112-0.393 0.222-0.625 0.324l0.079-0.015c-6.905 3.898-11.52 10.909-11.52 18.931 0 4.359 1.383 8.416 3.726 11.84l-0.039-0.021s3.976 5.098 1.402 9.189c-0.343 0.395-0.676 0.786-0.98 1.205-2.593 3.549-4.109 7.82-4.109 12.424 0 6.594 3.141 12.51 8.09 16.587v0.025s3.39 2.797 1.894 8.157l0.033-0.029c-1.09 2.543-1.717 5.322-1.717 8.228 0 11.681 9.774 21.243 22.183 22.133l-0.453 0.149s4.382 0.247 5.592 5.325l0.032-0.135c1.946 10.452 11.781 18.42 23.666 18.42 12.894 0 23.385-9.38 23.992-21.155l0.05 0.02v-64.059c0-0.34-0.404-1.019-1.102-0.929-3.786 0.489-20.992 3.237-21.668 3.337-0.798 0.128-1.05-0.67-0.981-1.011 0.083-0.343 23.751-90.367 23.751-90.367 0-12.268-10.765-22.214-24.042-22.214" fill="#231f20" fill-rule="nonzero"/>
   </g>
   <g transform="matrix(2 0 0 2 1924 614.24)">
    <path d="m0-6.976-0.039 0.021c2.339-3.425 3.722-7.481 3.722-11.842 0-8.021-4.621-15.027-11.518-18.929l0.081 0.015c-0.223-0.102-0.414-0.212-0.605-0.319-0.153-0.076-0.284-0.167-0.426-0.237-2.574-1.645-2.403-4.148-1.937-5.754 0.212-0.465 0.382-0.945 0.564-1.425 0.051-0.076 0.08-0.121 0.07-0.101l-0.029 0.02c0.838-2.262 1.311-4.673 1.311-7.194 0-10.244-7.512-18.847-17.709-21.415l0.061-0.015c-5.411-1.096-5.138-5.976-5.138-5.976l-0.031 0.05c-0.364-11.986-10.956-21.599-24.013-21.599-13.276 0-24.049 9.946-24.049 22.213v64.019c0 0.691 0.646 0.971 1.02 0.919 0.313-0.045 17.67-2.82 21.729-3.346 0.797-0.1 1.069 0.737 0.968 1.212-0.101 0.473-23.717 90.226-23.717 90.226l0.059-0.022c0.609 11.776 11.098 21.155 23.99 21.155 11.875 0 21.709-7.966 23.669-18.418l0.032 0.134c1.2-5.077 5.583-5.324 5.583-5.324l-0.445-0.15c12.398-0.89 22.183-10.452 22.183-22.132 0-2.906-0.627-5.685-1.727-8.23l0.04 0.031c-1.492-5.361 1.898-8.158 1.898-8.158v-0.024c4.947-4.078 8.086-9.993 8.086-16.588 0-5.148-1.906-9.873-5.086-13.639-2.576-4.089 1.403-9.178 1.403-9.178" fill="#231f20" fill-rule="nonzero"/>
   </g>
   <g transform="matrix(2 0 0 2 1893.4 412.32)">
    <path d="m0 11.459c-3.16 0-5.737-2.575-5.737-5.729 0-3.166 2.577-5.74 5.737-5.74s5.734 2.574 5.734 5.74c0 3.154-2.574 5.729-5.734 5.729m0-12.338c-3.646 0-6.614 2.959-6.614 6.609 0 3.645 2.968 6.608 6.614 6.608 3.644 0 6.602-2.963 6.602-6.608 0-3.65-2.958-6.609-6.602-6.609" fill="#231f20" fill-rule="nonzero"/>
   </g>
   <g transform="matrix(2 0 0 2 1890.4 423.93)">
    <path d="m0-0.152v-2.231h1.597c0.342 0 1.443 0.085 1.443 1.115 0 1.004-1.001 1.116-1.443 1.116zm3.918-1.116c0-1.368-1.161-1.973-2.321-1.973h-2.465v6.33h0.868v-2.373h1.385l2.158 2.373h1.164l-2.263-2.488c0.797-0.217 1.474-0.789 1.474-1.869" fill="#231f20" fill-rule="nonzero"/>
   </g>
  </g>
 </g>
</svg>
