<?xml version="1.0" encoding="UTF-8" standalone="no"?>
<!-- Created with Inkscape (http://www.inkscape.org/) -->

<svg
   version="1.1"
   id="svg824"
   xml:space="preserve"
   width="1152"
   height="1094.6667"
   viewBox="0 0 1152 1094.6667"
   sodipodi:docname="Logo_FemDevs.svg"
   inkscape:version="1.1.2 (b8e25be833, 2022-02-05)"
   xmlns:inkscape="http://www.inkscape.org/namespaces/inkscape"
   xmlns:sodipodi="http://sodipodi.sourceforge.net/DTD/sodipodi-0.dtd"
   xmlns="http://www.w3.org/2000/svg"
   xmlns:svg="http://www.w3.org/2000/svg"><defs
     id="defs828"><clipPath
       clipPathUnits="userSpaceOnUse"
       id="clipPath838"><path
         d="M 0,821 H 864 V 0 H 0 Z"
         id="path836" /></clipPath><clipPath
       clipPathUnits="userSpaceOnUse"
       id="clipPath878"><path
         d="M 0,821 H 864 V 0 H 0 Z"
         id="path876" /></clipPath></defs><sodipodi:namedview
     id="namedview826"
     pagecolor="#ffffff"
     bordercolor="#111111"
     borderopacity="1"
     inkscape:pageshadow="0"
     inkscape:pageopacity="0"
     inkscape:pagecheckerboard="1"
     showgrid="false"
     inkscape:zoom="1.0438652"
     inkscape:cx="557.54324"
     inkscape:cy="646.6352"
     inkscape:window-width="1920"
     inkscape:window-height="1017"
     inkscape:window-x="-8"
     inkscape:window-y="-8"
     inkscape:window-maximized="1"
     inkscape:current-layer="g830" /><g
     id="g830"
     inkscape:groupmode="layer"
     inkscape:label="LOGO FEMDEVSPERU en vectores"
     transform="matrix(1.3333333,0,0,-1.3333333,0,1094.6667)"><g
       id="g832"><g
         id="g834"
         clip-path="url(#clipPath838)"><g
           id="g840"
           transform="translate(406.228,651.1646)"><path
             d="M 0,0 C 10.633,-7.899 4.557,-10.329 4.557,-10.329 -1.215,-14.583 0,0 0,0 m 38.279,-86.583 -10.33,7.292 4.254,7.898 12.455,-8.202 z m 251.24,-129.113 c 0,0 85.671,90.531 6.684,176.81 0,0 -6.38,1.215 -6.684,11.544 -0.304,10.329 7.898,22.177 -51.038,36.456 -58.937,14.279 -64.405,-0.911 -64.405,-0.911 l -6.684,-19.747 c 0,0 -56.506,-1.215 -99.038,-85.368 l -50.43,-4.253 c 0,0 3.949,15.798 -12.456,16.406 0,0 -45.57,46.784 -44.051,69.873 1.52,23.089 20.659,21.57 29.773,18.835 0,0 -4.253,-27.038 13.367,-23.696 17.62,3.342 7.291,27.646 1.519,29.164 0,0 9.418,40.102 47.392,36.457 37.975,-3.646 24.608,-56.507 7.291,-81.722 l -5.468,3.038 c 0,0 -36.152,-37.671 -33.114,-45.874 0,0 10.026,-17.012 20.051,-13.974 l 34.633,43.139 -9.418,8.203 c 0,0 24.304,29.772 21.569,64.404 C 86.279,57.722 64.708,65.316 46.785,63.494 28.861,61.671 3.342,53.165 -6.684,13.671 c 0,0 -43.443,9.722 -43.139,-28.557 0,0 -6.987,-21.873 46.481,-73.823 0,0 -6.076,-4.557 -3.95,-10.025 2.127,-5.469 3.039,-6.988 3.039,-6.988 l -39.19,-6.987 c 0,0 -36.76,106.633 -126.38,91.747 0,0 -4.861,8.81 -14.886,6.684 0,0 -4.405,8.81 -14.43,8.202 -10.026,-0.608 -75.342,-22.785 -76.254,-47.544 0,0 -1.215,-4.709 4.709,-7.139 0,0 -3.493,-6.836 -2.582,-15.19 0,0 -31.063,-39.722 -28.557,-81.874 0,0 -0.911,-53.089 53.772,-85.215 0,0 -35.316,-82.254 -33.721,-121.443 1.595,-39.19 23.24,-63.798 61.974,-61.975 38.735,1.823 98.583,50.051 133.519,138.152 0,0 6.076,-49.822 48,-48.304 41.925,1.52 47.393,46.785 46.785,58.937 l 34.026,-3.341 c 0,0 -1.52,-49.52 44.658,-54.988 46.177,-5.468 51.949,53.468 51.949,53.468 h 6.987 c 0,0 25.823,-147.949 117.57,-156.151 0,0 78.076,0.607 79.291,69.873 1.216,69.266 -53.468,153.114 -53.468,153.114"
             style="fill:#f4f5f0;fill-opacity:1;fill-rule:nonzero;stroke:none"
             id="path842" /></g><g
           id="g844"
           transform="translate(402.4302,280.7598)"><path
             d="m 0,0 v 10.48 h -34.405 v 0.229 h -10.936 v -48.532 h 1.139 9.797 H 0 v 10.481 h -34.405 v 8.43 h 27.57 v 10.481 h -27.57 V 0 Z"
             style="fill:#f4f5f0;fill-opacity:1;fill-rule:nonzero;stroke:none"
             id="path846" /></g><path
           d="m 578.102,232.456 h -47.62 v 11.62 h 47.62 z"
           style="fill:#f4f5f0;fill-opacity:1;fill-rule:nonzero;stroke:none"
           id="path848" /><path
           d="M 339.544,254.102 H 312.43 v 26.733 h 27.114 z m 1.671,37.367 h -39.341 l -0.19,-48.342 10.746,0.037 c 0,0 25.595,-0.455 31.367,0 5.773,0.456 6.228,5.925 6.228,5.925 v 34.48 c 0,6.836 -8.81,7.9 -8.81,7.9"
           style="fill:#f4f5f0;fill-opacity:1;fill-rule:nonzero;stroke:none"
           id="path850" /><g
           id="g852"
           transform="translate(407.291,291.7725)"><path
             d="M 0,0 H 12.456 L 31.898,-33.874 52.102,0 H 64.405 L 36,-49.367 h -7.595 z"
             style="fill:#f4f5f0;fill-opacity:1;fill-rule:nonzero;stroke:none"
             id="path854" /></g><g
           id="g856"
           transform="translate(512.8604,276.8857)"><path
             d="M 0,0 V 3.494 H -27.037 V -3.949 H 3.038 c 0,0 8.127,-0.304 8.127,-8.126 v -15.874 c 0,0 -0.987,-6.076 -7.215,-6.076 h -34.785 c 0,0 -6.987,1.367 -6.987,6.987 v 8.354 h 11.392 v -4.404 h 26.126 v 8.05 h -30.38 c 0,0 -6.835,0.608 -6.835,6.228 V 8.507 c 0,0 2.127,6.38 6.988,6.531 4.86,0.152 33.873,0 33.873,0 0,0 8.051,-0.304 8.051,-8.202 L 11.393,0 C 11.393,0 -0.228,-0.228 0,0"
             style="fill:#f4f5f0;fill-opacity:1;fill-rule:nonzero;stroke:none"
             id="path858" /></g><g
           id="g860"
           transform="translate(256.4556,546.6582)"><path
             d="m 0,0 c 14.886,38.583 25.823,22.177 30.684,11.544 4.86,-10.632 5.468,-32.81 -5.772,-56.81 -11.241,-24 -24.608,-32.81 -30.684,-37.367 0,0 -9.114,44.051 5.772,82.633 m -20.658,-196.557 c -7.899,-31.595 -19.443,-77.772 -41.317,-81.114 -21.873,-3.342 -10.329,53.773 -0.911,69.569 9.418,15.798 23.392,41.013 46.481,57.115 0,0 3.646,-13.975 -4.253,-45.57 m 170.734,153.722 c 4.043,1.408 6.987,2.43 7.291,-15.494 0,0 -8.202,-11.848 -34.329,-16.405 0,0 7.895,25.227 27.038,31.899 m 301.975,-181.367 c -5.468,25.518 -13.367,37.671 -18.836,33.417 -5.468,-4.253 -2.127,-12.759 2.735,-15.797 4.86,-3.038 14.885,-19.14 16.405,-33.114 1.519,-13.975 4.86,-29.164 -17.316,-34.026 -22.178,-4.86 -51.342,34.937 -53.469,82.026 -2.127,47.089 19.443,110.886 24.911,128.506 5.469,17.62 4.558,30.076 4.558,30.076 1.518,11.24 -15.191,49.823 -43.14,41.62 -27.949,-8.202 -57.114,-54.38 -63.494,-68.05 -6.379,-13.671 -4.861,-2.431 -4.861,-2.431 0.608,12.152 3.342,45.874 -13.367,45.874 -16.709,0 -27.949,-20.355 -34.936,-32.203 -6.988,-11.848 -6.38,-4.253 -6.38,-4.253 2.127,20.658 -4.557,22.785 -4.557,22.785 -9.418,0.304 -15.19,-13.671 -15.19,-13.671 -20.355,-30.683 -34.329,-58.329 -65.924,-75.95 -31.595,-17.62 -43.443,-5.164 -44.962,11.545 -1.519,16.709 7.899,28.557 7.899,28.557 22.481,2.734 25.93,7.104 33.417,11.848 7.923,5.019 6.988,15.797 6.684,22.177 -0.304,6.38 -8.203,33.722 -41.013,11.241 C 88.405,-56.506 85.367,-91.747 85.367,-91.747 27.646,-111.494 3.342,-133.063 3.342,-133.063 l -5.165,39.189 c 0,0 13.216,10.33 19.139,18.836 C 50.222,-27.789 46.785,7.899 46.785,7.899 46.177,33.722 26.127,56.203 4.557,56.81 c -21.57,0.608 -45.57,-42.532 -44.051,-77.164 1.519,-34.633 11.848,-60.152 11.848,-60.152 l 5.165,-19.14 c -5.165,-6.076 -26.278,-16.708 -37.671,-17.62 -11.392,-0.911 -24.152,9.114 -28.253,25.063 -4.101,15.95 10.937,38.735 10.937,38.735 0,0 9.57,10.481 0.911,11.392 -8.658,0.911 -11.848,-5.924 -11.848,-5.924 -6.076,-8.203 -8.81,-23.696 -8.81,-23.696 -3.342,-33.114 16.709,-52.861 34.937,-54.076 18.228,-1.215 41.62,17.013 41.62,17.013 4.047,-7.517 5.343,-28.774 5.459,-30.814 0.032,-0.082 0.009,-0.174 0.009,-0.174 0,0 -0.003,0.069 -0.009,0.174 -0.231,0.586 -3.278,0.686 -37.662,-36.629 -39.189,-42.532 -42.531,-115.747 -4.86,-116.962 37.671,-1.216 47.392,33.417 57.417,70.784 10.026,37.367 5.773,83.545 5.773,83.545 28.253,22.784 79.633,40.709 79.633,40.709 -0.153,-64.672 47.658,-43.14 79.556,-27.039 31.899,16.102 62.886,65.013 62.886,65.013 4.253,0.911 -0.607,-55.291 -0.607,-55.291 0,0 -5.165,-23.697 4.253,-24.608 9.418,-0.911 6.987,27.95 12.152,59.241 5.164,31.291 31.899,59.544 39.19,47.696 7.291,-11.848 -1.215,-66.835 -1.215,-66.835 -2.127,-49.52 0,-50.127 11.848,-54.38 11.848,-4.253 8.81,41.316 8.81,41.316 2.126,42.836 32.202,79.596 43.139,92.051 10.937,12.456 18.836,7.291 18.836,7.291 17.316,-14.582 7.291,-19.443 0,-100.253 -7.291,-80.81 6.987,-113.013 6.987,-113.013 26.431,-58.632 59.848,-69.265 76.557,-60.152 16.709,9.114 10.025,37.367 4.557,62.887"
             style="fill:#ff1212;fill-opacity:1;fill-rule:nonzero;stroke:none"
             id="path862" /></g><g
           id="g864"
           transform="translate(256.4556,546.6582)"><path
             d="m 0,0 c 14.886,38.583 25.823,22.177 30.684,11.544 4.86,-10.632 5.468,-32.81 -5.772,-56.81 -11.241,-24 -24.608,-32.81 -30.684,-37.367 0,0 -9.114,44.051 5.772,82.633 m -20.658,-196.557 c -7.899,-31.595 -19.443,-77.772 -41.317,-81.114 -21.873,-3.342 -10.329,53.773 -0.911,69.569 9.418,15.798 23.392,41.013 46.481,57.115 0,0 3.646,-13.975 -4.253,-45.57 m 170.734,153.722 c 4.043,1.408 6.987,2.43 7.291,-15.494 0,0 -8.202,-11.848 -34.329,-16.405 0,0 7.895,25.227 27.038,31.899 m 301.975,-181.367 c -5.468,25.518 -13.367,37.671 -18.836,33.417 -5.468,-4.253 -2.127,-12.759 2.735,-15.797 4.86,-3.038 14.885,-19.14 16.405,-33.114 1.519,-13.975 4.86,-29.164 -17.316,-34.026 -22.178,-4.86 -51.342,34.937 -53.469,82.026 -2.127,47.089 19.443,110.886 24.911,128.506 5.469,17.62 4.558,30.076 4.558,30.076 1.518,11.24 -15.191,49.823 -43.14,41.62 -27.949,-8.202 -57.114,-54.38 -63.494,-68.05 -6.379,-13.671 -4.861,-2.431 -4.861,-2.431 0.608,12.152 3.342,45.874 -13.367,45.874 -16.709,0 -27.949,-20.355 -34.936,-32.203 -6.988,-11.848 -6.38,-4.253 -6.38,-4.253 2.127,20.658 -4.557,22.785 -4.557,22.785 -9.418,0.304 -15.19,-13.671 -15.19,-13.671 -20.355,-30.683 -34.329,-58.329 -65.924,-75.95 -31.595,-17.62 -43.443,-5.164 -44.962,11.545 -1.519,16.709 7.899,28.557 7.899,28.557 22.481,2.734 25.93,7.104 33.417,11.848 7.923,5.019 6.988,15.797 6.684,22.177 -0.304,6.38 -8.203,33.722 -41.013,11.241 C 88.405,-56.506 85.367,-91.747 85.367,-91.747 27.646,-111.494 3.342,-133.063 3.342,-133.063 l -5.165,39.189 c 0,0 13.216,10.33 19.139,18.836 C 50.222,-27.789 46.785,7.899 46.785,7.899 46.177,33.722 26.127,56.203 4.557,56.81 c -21.57,0.608 -45.57,-42.532 -44.051,-77.164 1.519,-34.633 11.848,-60.152 11.848,-60.152 l 5.165,-19.14 c -5.165,-6.076 -26.278,-16.708 -37.671,-17.62 -11.392,-0.911 -24.152,9.114 -28.253,25.063 -4.101,15.95 10.937,38.735 10.937,38.735 0,0 9.57,10.481 0.911,11.392 -8.658,0.911 -11.848,-5.924 -11.848,-5.924 -6.076,-8.203 -8.81,-23.696 -8.81,-23.696 -3.342,-33.114 16.709,-52.861 34.937,-54.076 18.228,-1.215 41.62,17.013 41.62,17.013 4.047,-7.517 5.343,-28.774 5.459,-30.814 0.032,-0.082 0.009,-0.174 0.009,-0.174 0,0 -0.003,0.069 -0.009,0.174 -0.231,0.586 -3.278,0.686 -37.662,-36.629 -39.189,-42.532 -42.531,-115.747 -4.86,-116.962 37.671,-1.216 47.392,33.417 57.417,70.784 10.026,37.367 5.773,83.545 5.773,83.545 28.253,22.784 79.633,40.709 79.633,40.709 -0.153,-64.672 47.658,-43.14 79.556,-27.039 31.899,16.102 62.886,65.013 62.886,65.013 4.253,0.911 -0.607,-55.291 -0.607,-55.291 0,0 -5.165,-23.697 4.253,-24.608 9.418,-0.911 6.987,27.95 12.152,59.241 5.164,31.291 31.899,59.544 39.19,47.696 7.291,-11.848 -1.215,-66.835 -1.215,-66.835 -2.127,-49.52 0,-50.127 11.848,-54.38 11.848,-4.253 8.81,41.316 8.81,41.316 2.126,42.836 32.202,79.596 43.139,92.051 10.937,12.456 18.836,7.291 18.836,7.291 17.316,-14.582 7.291,-19.443 0,-100.253 -7.291,-80.81 6.987,-113.013 6.987,-113.013 26.431,-58.632 59.848,-69.265 76.557,-60.152 16.709,9.114 10.025,37.367 4.557,62.887"
             style="fill:#ff1212;fill-opacity:1;fill-rule:nonzero;stroke:none"
             id="path866" /></g><g
           id="g868"
           transform="translate(256.4556,546.6582)"><path
             d="m 0,0 c 14.886,38.583 25.823,22.177 30.684,11.544 4.86,-10.632 5.468,-32.81 -5.772,-56.81 -11.241,-24 -24.608,-32.81 -30.684,-37.367 0,0 -9.114,44.051 5.772,82.633 m -20.658,-196.557 c -7.899,-31.595 -19.443,-77.772 -41.317,-81.114 -21.873,-3.342 -10.329,53.773 -0.911,69.569 9.418,15.798 23.392,41.013 46.481,57.115 0,0 3.646,-13.975 -4.253,-45.57 m 170.734,153.722 c 4.043,1.408 6.987,2.43 7.291,-15.494 0,0 -8.202,-11.848 -34.329,-16.405 0,0 7.895,25.227 27.038,31.899 m 301.975,-181.367 c -5.468,25.518 -13.367,37.671 -18.836,33.417 -5.468,-4.253 -2.127,-12.759 2.735,-15.797 4.86,-3.038 14.885,-19.14 16.405,-33.114 1.519,-13.975 4.86,-29.164 -17.316,-34.026 -22.178,-4.86 -51.342,34.937 -53.469,82.026 -2.127,47.089 19.443,110.886 24.911,128.506 5.469,17.62 4.558,30.076 4.558,30.076 1.518,11.24 -15.191,49.823 -43.14,41.62 -27.949,-8.202 -57.114,-54.38 -63.494,-68.05 -6.379,-13.671 -4.861,-2.431 -4.861,-2.431 0.608,12.152 3.342,45.874 -13.367,45.874 -16.709,0 -27.949,-20.355 -34.936,-32.203 -6.988,-11.848 -6.38,-4.253 -6.38,-4.253 2.127,20.658 -4.557,22.785 -4.557,22.785 -9.418,0.304 -15.19,-13.671 -15.19,-13.671 -20.355,-30.683 -34.329,-58.329 -65.924,-75.95 -31.595,-17.62 -43.443,-5.164 -44.962,11.545 -1.519,16.709 7.899,28.557 7.899,28.557 22.481,2.734 25.93,7.104 33.417,11.848 7.923,5.019 6.988,15.797 6.684,22.177 -0.304,6.38 -8.203,33.722 -41.013,11.241 C 88.405,-56.506 85.367,-91.747 85.367,-91.747 27.646,-111.494 3.342,-133.063 3.342,-133.063 l -5.165,39.189 c 0,0 13.216,10.33 19.139,18.836 C 50.222,-27.789 46.785,7.899 46.785,7.899 46.177,33.722 26.127,56.203 4.557,56.81 c -21.57,0.608 -45.57,-42.532 -44.051,-77.164 1.519,-34.633 11.848,-60.152 11.848,-60.152 l 5.165,-19.14 c -5.165,-6.076 -26.278,-16.708 -37.671,-17.62 -11.392,-0.911 -24.152,9.114 -28.253,25.063 -4.101,15.95 10.937,38.735 10.937,38.735 0,0 9.57,10.481 0.911,11.392 -8.658,0.911 -11.848,-5.924 -11.848,-5.924 -6.076,-8.203 -8.81,-23.696 -8.81,-23.696 -3.342,-33.114 16.709,-52.861 34.937,-54.076 18.228,-1.215 41.62,17.013 41.62,17.013 4.047,-7.517 5.343,-28.774 5.459,-30.814 0.032,-0.082 0.009,-0.174 0.009,-0.174 0,0 -0.003,0.069 -0.009,0.174 -0.231,0.586 -3.278,0.686 -37.662,-36.629 -39.189,-42.532 -42.531,-115.747 -4.86,-116.962 37.671,-1.216 47.392,33.417 57.417,70.784 10.026,37.367 5.773,83.545 5.773,83.545 28.253,22.784 79.633,40.709 79.633,40.709 -0.153,-64.672 47.658,-43.14 79.556,-27.039 31.899,16.102 62.886,65.013 62.886,65.013 4.253,0.911 -0.607,-55.291 -0.607,-55.291 0,0 -5.165,-23.697 4.253,-24.608 9.418,-0.911 6.987,27.95 12.152,59.241 5.164,31.291 31.899,59.544 39.19,47.696 7.291,-11.848 -1.215,-66.835 -1.215,-66.835 -2.127,-49.52 0,-50.127 11.848,-54.38 11.848,-4.253 8.81,41.316 8.81,41.316 2.126,42.836 32.202,79.596 43.139,92.051 10.937,12.456 18.836,7.291 18.836,7.291 17.316,-14.582 7.291,-19.443 0,-100.253 -7.291,-80.81 6.987,-113.013 6.987,-113.013 26.431,-58.632 59.848,-69.265 76.557,-60.152 16.709,9.114 10.025,37.367 4.557,62.887"
             style="fill:#bd4c92;fill-opacity:1;fill-rule:nonzero;stroke:#bd4c92;stroke-opacity:1;stroke-width:0.75000002;stroke-miterlimit:4;stroke-dasharray:none"
             id="path870" /></g></g></g><g
       id="g872"><g
         id="g874"
         clip-path="url(#clipPath878)"><g
           id="g880"
           transform="translate(347.6313,187.2051)"><path
             d="M 0,0 C -1.845,-11.989 -8.301,-13.143 -8.301,-13.143 H -35.74 l 5.073,30.206 c 0,0.692 25.133,0 25.133,0 C 1.383,15.449 1.845,11.99 0,0 M 1.845,34.817 H -47.729 L -66.406,-68.712 c 0.23,0.231 20.752,-0.691 20.752,-0.691 l 6.917,40.35 28.361,-1.383 c 22.135,0 32.281,18.677 32.281,42.196 0,23.518 -20.06,23.057 -20.06,23.057"
             style="fill:#f4f5f0;fill-opacity:1;fill-rule:nonzero;stroke:none"
             id="path882" /></g><g
           id="g884"
           transform="translate(420.417,170.9111)"><path
             d="m 0,0 c -1.076,-7.532 -4.766,-9.069 -4.766,-9.069 0,0 -21.673,0.615 -21.981,0.307 0,0 1.537,13.835 9.53,16.294 h 13.835 c 0,0 4.458,0 3.382,-7.532 m -6.457,22.904 c 0,0 -29.974,3.843 -36.892,-18.293 -6.917,-22.134 -6.456,-37.353 -6.456,-37.353 0,0 -3.689,-20.137 18.293,-20.598 0,0 26.439,-1.999 41.965,3.535 l 1.844,13.681 c 0,0 -29.667,-4.457 -40.889,0.462 0,0 -1.845,-0.615 -1.845,5.533 l 0.154,6.918 31.973,-0.154 c 0,0 14.604,1.076 17.832,17.217 3.228,16.14 2.459,27.823 -25.979,29.052"
             style="fill:#f4f5f0;fill-opacity:1;fill-rule:nonzero;stroke:none"
             id="path886" /></g><g
           id="g888"
           transform="translate(492.3564,193.6611)"><path
             d="m 0,0 c 0,0 -5.533,0 -17.831,-9.223 0,0 -1.845,7.686 -1.537,9.377 h -16.909 l -13.527,-75.63 h 20.906 l 7.993,48.883 c 0,0 5.226,6.61 14.911,7.072 9.683,0.46 17.216,-0.616 17.216,-0.616 L 13.989,0 Z"
             style="fill:#f4f5f0;fill-opacity:1;fill-rule:nonzero;stroke:none"
             id="path890" /></g><g
           id="g892"
           transform="translate(561.2227,193.5078)"><path
             d="m 0,0 -9.069,-53.955 c 0,0 -20.199,-14.941 -26.132,-3.074 -0.461,0.922 -1.23,1.844 0.922,12.604 2.152,10.761 7.84,44.425 7.84,44.425 l -20.137,0.461 c 0,0 -9.685,-49.958 -9.531,-58.259 0.154,-8.301 1.383,-20.138 19.061,-19.83 0,0 14.142,0.769 25.363,9.838 L -9.377,-75.476 7.532,-76.091 20.752,0 Z"
             style="fill:#f4f5f0;fill-opacity:1;fill-rule:nonzero;stroke:none"
             id="path894" /></g><g
           id="g896"
           transform="translate(577.9775,221.9453)"><path
             d="m 0,0 -18.753,-0.153 -15.833,-19.215 h 13.681 z"
             style="fill:#f4f5f0;fill-opacity:1;fill-rule:nonzero;stroke:none"
             id="path898" /></g></g></g></g></svg>
