<?xml version="1.0" encoding="UTF-8" standalone="no"?>
<svg
   width="100%"
   height="100%"
   viewBox="0 0 6872 7636"
   version="1.1"
   xml:space="preserve"
   style="fill-rule:evenodd;clip-rule:evenodd;stroke-linejoin:round;stroke-miterlimit:2;"
   id="svg60"
   sodipodi:docname="Logo_FemDevs.svg"
   inkscape:version="1.1.2 (b8e25be833, 2022-02-05)"
   xmlns:inkscape="http://www.inkscape.org/namespaces/inkscape"
   xmlns:sodipodi="http://sodipodi.sourceforge.net/DTD/sodipodi-0.dtd"
   xmlns="http://www.w3.org/2000/svg"
   xmlns:svg="http://www.w3.org/2000/svg"><defs
   id="defs64" /><sodipodi:namedview
   id="namedview62"
   pagecolor="#ffffff"
   bordercolor="#111111"
   borderopacity="1"
   inkscape:pageshadow="0"
   inkscape:pageopacity="0"
   inkscape:pagecheckerboard="1"
   showgrid="false"
   inkscape:zoom="0.04"
   inkscape:cx="2137.5"
   inkscape:cy="5275"
   inkscape:window-width="1218"
   inkscape:window-height="697"
   inkscape:window-x="1912"
   inkscape:window-y="687"
   inkscape:window-maximized="1"
   inkscape:current-layer="g58" />
    <g
   transform="translate(-1711.09,-1051.49)"
   id="g58">
        <g
   transform="scale(4.16667)"
   id="g8"
   style="display:inline">
            <g
   transform="matrix(1.04,0,0,1,-30.2018,0)"
   id="g6">
                <g
   aria-label="Perú"
   id="text4"
   style="font-weight:600;font-size:375.453px;font-family:Royce-Semibold, Royce;fill:#fbfbf1"><path
     d="m 887.95034,2003.0457 c 70.58517,0 112.26046,-42.0508 112.26046,-99.8705 0,-57.8198 -46.55618,-99.8705 -111.88501,-99.8705 -64.57791,0 -111.13408,43.928 -111.13408,104.7514 v 147.553 c 0,16.8954 12.38994,29.2853 29.28533,29.2853 17.27084,0 29.66079,-12.3899 29.66079,-29.2853 v -52.5634 z m -51.81251,-47.3071 v -47.6825 c 0,-33.4154 21.77627,-57.4444 51.81251,-57.4444 30.41169,0 52.18797,22.1518 52.18797,52.5635 0,31.1626 -23.27809,52.5634 -55.19159,52.5634 z"
     id="path4094" /><path
     d="m 1193.1011,1989.1539 c 25.9062,0 42.4262,-18.3972 36.0435,-39.4226 -10.1373,-46.9316 -49.1844,-79.9714 -101.3724,-79.9714 -60.8233,0 -105.1268,45.4298 -105.1268,107.755 0,62.3252 45.0544,107.3795 107.3796,107.3795 47.307,0 86.7296,-25.9062 97.9932,-55.9425 5.2563,-12.0145 -2.2527,-25.1553 -16.8954,-25.1553 -7.8845,0 -16.5199,4.13 -22.1517,9.7618 -10.1372,18.3971 -30.7872,30.7871 -52.9389,30.7871 -31.9135,0 -54.4407,-21.7763 -57.0688,-55.1916 z m -113.3868,-31.1626 c 3.379,-31.9135 22.9026,-52.5634 48.0579,-52.5634 25.5309,0 45.0544,20.6499 48.4335,52.5634 z"
     id="path4091" /><path
     d="m 1270.799,2057.8618 c 0,16.1445 10.8882,27.0326 27.0326,27.0326 16.8954,0 27.4081,-10.8881 27.4081,-27.0326 v -100.9969 c 0,-25.5308 26.6572,-44.6789 58.1952,-44.6789 15.3936,0 22.9027,-8.2599 22.9027,-20.6499 0,-13.1408 -7.1336,-21.7762 -24.7799,-21.7762 -21.7763,0 -41.2999,7.8845 -56.6934,21.0253 -2.6282,-12.7654 -12.39,-21.0253 -26.6572,-21.0253 -16.5199,0 -27.4081,10.8881 -27.4081,27.0326 z"
     id="path4088" /><path
     d="m 1524.5977,1842.7272 58.1952,-49.1843 c 9.0109,-7.1336 9.0109,-16.8954 1.1264,-23.6535 -3.3791,-3.0037 -7.5091,-4.13 -11.2636,-4.13 -4.8809,0 -9.7618,2.2527 -13.8918,5.6318 l -57.8197,48.8089 c -9.3863,7.8845 -9.3863,17.6462 -1.5018,24.0289 3.379,2.6282 7.509,4.13 11.2636,4.13 4.8808,0 9.7617,-2.2527 13.8917,-5.6318 z m 117.8923,54.0653 c 0,-16.1445 -10.8882,-27.0326 -27.0327,-27.0326 -16.8953,0 -27.408,10.8881 -27.408,27.0326 v 100.9968 c 0,25.9063 -20.6499,44.6789 -48.4335,44.6789 -27.408,0 -46.9316,-18.7726 -46.9316,-43.928 v -101.7477 c 0,-15.3936 -10.8881,-27.0326 -27.0326,-27.0326 -16.8954,0 -27.4081,10.8881 -27.4081,27.0326 v 110.7586 c 0,45.0544 36.7944,77.3433 88.6069,77.3433 24.029,0 45.4298,-8.6354 61.1989,-22.1517 2.2527,13.5163 12.3899,22.1517 26.6571,22.1517 16.8954,0 27.7836,-10.8881 27.7836,-27.0326 z"
     id="path4085" /></g>
            </g>
        </g>
        <g
   transform="scale(4.16667)"
   id="g16">
            <g
   transform="matrix(1.04,0,0,1,-38.9037,0)"
   id="g14">
                <g
   aria-label="Devs"
   id="text12"
   style="font-weight:600;font-size:201.99px;font-family:Royce-Semibold, Royce;fill:#fbfbf1"><path
     d="m 1045.7104,1753.67 c 39.1861,0 67.2627,-31.5104 67.2627,-74.7363 0,-43.2258 -26.8647,-74.7363 -67.4647,-74.7363 -34.5403,0 -61.20295,23.2289 -61.20295,54.9413 v 80.594 c 0,8.2816 6.46368,13.9373 15.95725,13.9373 z m -29.4905,-25.4507 v -69.0806 c 0,-16.9671 12.9273,-29.4905 29.4905,-29.4905 21.007,0 34.9443,20.805 34.9443,49.4875 0,28.2786 -13.7353,49.0836 -32.7224,49.0836 z"
     id="path4013" /><path
     d="m 1223.4511,1704.1825 c 13.9373,0 22.8249,-9.8975 19.3911,-21.209 -5.4538,-25.2487 -26.4607,-43.0238 -54.5373,-43.0238 -32.7224,0 -56.5572,24.4408 -56.5572,57.9711 0,33.5303 24.2388,57.7691 57.7691,57.7691 25.4507,0 46.6597,-13.9373 52.7194,-30.0965 2.8279,-6.4636 -1.2119,-13.5333 -9.0896,-13.5333 -4.2417,0 -8.8875,2.2219 -11.9174,5.2517 -5.4537,9.8976 -16.5631,16.5632 -28.4806,16.5632 -17.1691,0 -29.2885,-11.7154 -30.7024,-29.6925 z m -61.001,-16.7652 c 1.818,-17.1691 12.3214,-28.2786 25.8548,-28.2786 13.7353,0 24.2388,11.1095 26.0567,28.2786 z"
     id="path4015" /><path
     d="m 1313.7431,1757.9118 c 7.4737,0 13.7354,-4.6457 16.5632,-10.9074 l 40.196,-89.6836 c 3.6358,-7.8776 -0.202,-14.7453 -8.6855,-16.7652 -1.414,-0.4039 -3.2319,-0.6059 -4.6458,-0.6059 -6.8677,0 -11.9174,4.6457 -14.1393,11.5134 l -29.2886,73.9283 -29.0865,-73.9283 c -2.4239,-6.8677 -7.2717,-11.5134 -14.3413,-11.5134 -1.414,0 -3.2319,0.202 -4.6458,0.6059 -8.4836,2.0199 -12.3214,8.8876 -8.6856,16.7652 l 40.196,89.6836 c 2.8279,6.2617 9.2916,10.9074 16.5632,10.9074 z"
     id="path4017" /><path
     d="m 1407.2485,1718.7258 c -1.616,-2.8279 -5.0498,-5.8577 -12.5234,-5.8577 -8.0796,0 -12.9274,3.4338 -12.9274,9.2915 0.404,17.9771 21.8149,33.5303 49.4876,33.5303 27.8746,0 48.8815,-14.3412 48.8815,-34.7422 0,-41.812 -67.8686,-23.6329 -67.8686,-45.8518 0,-8.2816 9.0896,-14.5432 20.805,-14.5432 11.1094,0 19.997,6.8676 21.6129,16.5631 1.6159,2.8279 5.0498,5.6558 12.9274,5.6558 7.4736,0 12.5233,-3.2319 12.5233,-9.2916 -0.4039,-17.7751 -21.2089,-33.5303 -48.8815,-33.5303 -27.8747,0 -49.4876,14.5433 -49.4876,34.7423 0,41.8119 67.8687,23.8348 67.8687,45.8517 0,8.2816 -8.8876,14.7453 -20.401,14.7453 -11.3115,0 -20.401,-7.0697 -22.0169,-16.5632 z"
     id="path4019" /></g>
            </g>
        </g>
        <g
   transform="scale(4.16667)"
   id="g32">
            <g
   opacity="0.5"
   id="g30">
                <g
   opacity="0.8"
   id="g22">
                    <g
   transform="translate(1413.33,1023.07)"
   id="g20">
                        <path
   d="m 0,396.366 c 0,0 -35.539,-45.36 35.49,-19.125 54.607,20.17 67.245,6.113 67.245,6.113 0,0 401.344,372.577 457.914,342.116 56.992,-30.688 90.31,-117.343 85.419,-192.648 C 640.726,450.57 531.182,264.35 531.182,264.35 c 0,0 255.812,-238.23 -7.105,-505.191 0,0 -2.09,-29.124 -12.279,-38.09 -67.188,-60.955 -120.984,-67.583 -178.187,-73.339 -72.505,-7.295 -104.988,171.126 -114.595,176.358 z"
   style="fill:#9a62a1;fill-rule:nonzero"
   id="path18" />
                    </g>
                </g>
                <g
   opacity="0.8"
   id="g28">
                    <g
   transform="translate(527.459,670.251)"
   id="g26">
                        <path
   d="m 0,407.893 884.616,33.589 c 0,0 162.224,-183.629 116.544,-205.604 -45.676,-21.975 -165.089,-29.451 -165.089,-29.451 0,0 -88.056,-9.537 -136.651,-6.445 -61.825,3.935 -117.432,12.552 -117.432,12.552 0,0 -78.169,-246.123 -355.964,-207.974 0,0 -38.654,-24.49 -64.329,-17.562 C 111.894,0.436 108.95,3.916 85.652,14.712 70.364,21.796 21.337,133.933 28.121,155.417 c 0,0 -31.378,63.141 -28.046,196.72 z"
   style="fill:#9a62a1;fill-rule:nonzero"
   id="path24" />
                    </g>
                </g>
            </g>
        </g>
        <g
   transform="scale(4.16667)"
   id="g38">
            <g
   transform="translate(1087.68,1543.2)"
   id="g36">
                <path
   d="m 0,-609.676 c 0,0 -66.187,-272.476 -354.958,-222.74 0,0 -42.914,-44.021 -78.081,-41.381 -35.167,2.639 -131.682,70.938 -142.959,90.567 -8.393,14.61 -5.726,41.959 1.058,63.443 0,0 -105.329,106.005 -101.997,239.584 0,0 -2.444,171.74 134.309,254.172 0,0 -90.842,206.774 -87.79,305.742 3.052,98.968 56.892,161.613 154.361,157.957 97.468,-3.658 250.989,-79.074 326.802,-261.773 0,0 22.069,19.665 71.333,17.375 79.808,-3.709 118.861,-70.323 108.718,-103.412 l 262.568,-1.227 c 0,0 -1.132,66.762 68.714,93.669 53.698,20.685 103.099,-8.116 103.099,-8.116 0,0 99.827,236.899 268.611,262.377 0,0 181.512,35.915 207.078,-130.69 22.869,-149.027 -142.431,-352.55 -142.431,-352.55 0,0 266.465,-246.768 7.999,-520.75 0,0 -4.99,-37.745 -12.262,-51.266 -11.492,-18.979 -50.463,-47.589 -106.719,-53.474 -71.306,-7.46 -95.23,-0.952 -104.681,4.424 -9.451,5.375 -39.425,38.364 -39.425,38.364 0,0 -201.798,-16.271 -287.726,204.441 0,0 -78.585,-3.584 -127.179,-0.491 C 66.616,-621.497 0,-609.676 0,-609.676"
   style="fill:#fbfbf1;fill-rule:nonzero"
   id="path34" />
            </g>
        </g>
        <g
   transform="scale(4.16667)"
   id="g44">
            <g
   transform="translate(612.399,1349.81)"
   id="g42">
                <path
   d="m 0,-119.209 c 68.749,14.82 139.197,22.195 209.383,25.571 63.2,3.041 126.572,2.716 189.769,-0.259 43.399,-2.043 86.891,-5.05 129.985,-10.713 17.741,-2.332 34.702,-4.003 51.116,-11.573 30.519,-14.076 40.836,-48.371 36.671,-79.371 -4.107,-30.562 -19.418,-57.941 -38.843,-81.432 -20.57,-24.876 -49.136,-41.615 -81.167,-46.231 -36.078,-5.2 -74.339,-3.036 -106.328,16.065 -29.509,17.621 -55.927,45.135 -71.333,75.919 -30.564,61.073 -19.484,138.211 21.963,191.358 41.277,52.928 112.873,65.056 176.135,58.936 35.923,-3.476 69.998,-11.564 102.987,-26.257 26.848,-11.959 49.592,-31.003 70.026,-51.872 44.95,-45.908 74.666,-102.261 98.388,-161.381 6.779,-16.896 12.979,-34.016 18.852,-51.247 -23.571,-3.19 -47.143,-6.38 -70.714,-9.57 7.548,72.154 13.014,144.562 18.076,216.927 1.241,17.726 2.427,35.457 3.485,53.195 1.074,18.01 12.881,32.893 31.214,35.357 7.675,1.031 16.251,0.05 22.955,-4.272 8.359,-5.389 12.884,-12.326 16.545,-21.515 34.064,-85.504 63.6,-172.758 97.808,-258.217 2.111,-5.274 4.242,-10.539 6.406,-15.791 0.92,-2.231 1.853,-4.456 2.778,-6.685 2.127,-5.127 -4.002,9.402 -1.847,4.374 0.575,-1.343 1.143,-2.69 1.724,-4.031 1.281,-2.959 2.61,-5.896 4.116,-8.749 0.774,-1.465 1.583,-2.913 2.446,-4.327 2.042,-3.344 6.638,-6.701 -1.11,0.837 0.702,-0.683 1.3,-1.541 1.979,-2.259 0.668,-0.711 1.364,-1.394 2.086,-2.049 2.709,-2.314 1.394,-1.317 -3.943,2.991 1.141,-0.523 2.555,-1.379 3.614,-2.061 -8.229,5.298 -6.559,2.441 -1.917,1.645 -3.19,0.429 -6.38,0.857 -9.57,1.286 2.574,-0.283 5.018,-0.234 7.584,0.079 -3.19,-0.428 -6.38,-0.857 -9.57,-1.286 1.721,0.305 3.327,0.734 5.02,1.158 6.414,1.604 -6.666,-3.627 -3.196,-1.404 -0.062,-0.04 -8.259,-6.904 -4.499,-3.242 2.556,2.49 -6.14,-8.977 -3.071,-3.629 2.666,4.644 -1.864,-4.225 -1.881,-4.754 0.032,0.967 0.907,2.71 1.166,3.66 0.71,2.6 1.176,5.251 1.567,7.914 -0.429,-3.19 -0.858,-6.38 -1.286,-9.57 1.955,15.05 0.775,30.579 0.63,45.729 -0.192,19.98 -0.336,39.96 -0.485,59.939 -0.348,46.761 -0.649,93.522 -1.187,140.281 -0.188,16.336 -0.297,32.683 -0.842,49.012 -0.598,17.91 14.16,33.066 31.215,35.357 7.674,1.031 16.25,0.051 22.955,-4.272 8.426,-5.432 12.705,-12.354 16.544,-21.515 41.131,-98.143 81.711,-196.499 121.281,-295.284 6.5,-16.219 12.98,-32.445 19.44,-48.675 0.9,-2.248 1.8,-4.496 2.69,-6.744 0.45,-1.137 0.91,-2.274 1.36,-3.411 1.12,-2.777 0.57,-1.535 -1.64,3.724 0.3,-0.39 1.86,-4.239 2.38,-4.162 -0.24,-0.035 -7.02,7.821 -1.43,2.241 0.95,-0.953 5.37,-4.518 0.15,-0.447 -5.45,4.24 0.69,-0.011 1.98,-0.775 3.07,-1.82 2.65,1.121 -4.04,1.694 2.04,-0.175 4.21,-1.137 6.29,-1.431 -3.19,0.428 -6.38,0.857 -9.57,1.286 2.13,-0.176 4.16,-0.159 6.29,0.076 -3.19,-0.428 -6.38,-0.857 -9.57,-1.286 0.24,0.044 3.08,0.59 3.06,0.669 -0.12,0.427 -8.62,-4.502 -4.12,-1.713 4.05,2.51 -2.75,-2.253 -3.23,-2.635 4.33,3.488 -3.8,-6.234 -1.83,-2.797 0.54,0.955 1.11,2.023 1.73,2.931 2.03,2.995 -2.4,-7.41 -1.62,-3.842 0.55,2.559 1.33,4.972 1.7,7.589 -0.42,-3.19 -0.85,-6.38 -1.28,-9.57 1.19,12.089 -0.04,24.743 -0.51,36.866 -0.49,12.683 -1.19,25.358 -2.05,38.02 -1.69,24.573 -4.01,49.098 -6.7,73.582 -5.07,46.378 -11.48,92.601 -16.37,139.001 -4.59,43.584 -7.8,87.44 -6.37,131.289 0.79,24.001 3.23,47.843 6.81,71.585 3.72,24.736 9.24,48.36 19.3,71.343 5.14,11.746 11.51,22.877 18.6,33.545 8.19,12.316 16.89,24.712 27.35,35.217 9.89,9.942 21.56,19.023 34.04,25.514 15.92,8.284 31.33,12.331 48.99,14.54 8.49,1.062 19.7,-4.788 25.46,-10.544 6.24,-6.244 10.94,-16.488 10.54,-25.456 -0.41,-9.31 -3.47,-18.967 -10.54,-25.456 -7.51,-6.895 -15.42,-9.288 -25.46,-10.544 -0.64,-0.079 -1.27,-0.159 -1.91,-0.239 3.19,0.429 6.38,0.857 9.57,1.286 -4.12,-0.614 -8.16,-1.443 -12.16,-2.611 -2.14,-0.625 -4.22,-1.397 -6.33,-2.107 -6.09,-2.048 7.69,3.84 1.59,0.657 -3.39,-1.769 -6.79,-3.462 -10.04,-5.481 -1.63,-1.008 -3.22,-2.064 -4.79,-3.16 -1.04,-0.731 -2.08,-1.481 -3.09,-2.249 1.42,1.091 2.84,2.182 4.26,3.273 -7.17,-3.881 -11.69,-12.155 -17.49,-17.547 6.57,6.111 3.02,3.982 0.87,1.025 -1.28,-1.76 -2.55,-3.532 -3.8,-5.313 -2.69,-3.829 -5.31,-7.71 -7.82,-11.656 -4.79,-7.489 -9.22,-15.215 -13.04,-23.241 -0.91,-1.913 -1.71,-3.887 -2.63,-5.792 4.55,9.383 1.36,3.153 0.46,0.718 -1.61,-4.345 -3.02,-8.762 -4.21,-13.241 -4.29,-16.162 -7.14,-32.781 -9.39,-49.338 0.42,3.19 0.85,6.38 1.28,9.57 -8.15,-61.646 -4.54,-123.967 1.95,-185.587 7,-66.369 16.9,-132.408 22.07,-198.969 1.37,-17.578 2.43,-35.18 3.09,-52.799 0.68,-17.987 3.09,-38.141 -3.43,-55.29 -9.43,-24.801 -31.38,-43.754 -59.23,-41.833 -23.13,1.595 -44.4,14.567 -56.42,34.449 -5.25,8.661 -8.3,19.222 -12.06,28.661 -3.44,8.638 -6.89,17.274 -10.34,25.909 -6.38,15.975 -12.78,31.945 -19.2,47.907 -10.98,27.31 -22.02,54.596 -33.14,81.85 -25.37,62.167 -51.207,124.142 -77.159,186.068 23.571,3.19 47.143,6.38 70.714,9.57 1.298,-38.898 1.164,-77.875 1.478,-116.789 0.374,-46.175 0.618,-92.352 1.096,-138.525 0.206,-19.834 2.071,-41.184 -4.499,-60.198 -3.954,-11.435 -9.721,-21.152 -19.35,-28.592 -10.345,-7.992 -23.944,-11.916 -36.996,-12.008 -24.437,-0.172 -44.081,14.91 -56.559,34.809 -7.525,12.001 -12.263,25.995 -17.617,39.038 -4.566,11.122 -8.999,22.298 -13.377,33.496 -10.452,26.731 -20.586,53.587 -30.65,80.466 -18.305,48.886 -36.048,97.995 -54.906,146.671 -1.506,3.887 -3.026,7.768 -4.568,11.64 23.571,3.19 47.142,6.381 70.714,9.571 -4.286,-71.864 -9.91,-143.68 -16.316,-215.383 -1.631,-18.257 -3.338,-36.508 -5.245,-54.739 -0.98,-9.366 -3.238,-18.749 -10.544,-25.456 -5.947,-5.459 -12.635,-8.821 -20.671,-9.901 -18.281,-2.456 -33.648,8.623 -39.499,25.787 -4.999,14.665 -10.232,29.251 -15.862,43.686 -1.228,3.149 -2.474,6.291 -3.741,9.424 -1.07,2.649 -6.322,14.632 -1.28,3.262 -2.698,6.084 -5.281,12.213 -8.066,18.261 -10.185,22.119 -21.715,43.661 -35.26,63.917 -2.948,4.409 -5.989,8.755 -9.127,13.03 -1.697,2.311 -8.199,10.458 -0.037,0.219 -1.938,2.431 -3.845,4.884 -5.819,7.286 -6.841,8.329 -14.083,16.326 -21.693,23.959 -7.663,7.685 -15.681,15.051 -24.044,21.969 -6.605,5.463 7.202,-5.189 0.288,-0.211 -2.053,1.478 -4.15,2.897 -6.281,4.262 -4.877,3.123 -9.935,5.96 -15.111,8.557 -2.932,1.472 -5.909,2.841 -8.901,4.186 -6.085,2.734 8.696,-3.458 2.439,-1.03 -1.578,0.611 -3.146,1.249 -4.729,1.847 -6.472,2.448 -13.052,4.609 -19.704,6.513 -13.731,3.931 -27.741,6.756 -41.885,8.706 3.19,-0.429 6.38,-0.858 9.57,-1.286 -24.657,3.253 -49.704,3.823 -74.387,0.508 3.19,0.428 6.38,0.857 9.571,1.286 -7.239,-1.028 -14.428,-2.363 -21.505,-4.209 -3.35,-0.873 -6.671,-1.854 -9.949,-2.969 -1.929,-0.656 -3.821,-1.398 -5.732,-2.101 -6.319,-2.321 8.272,3.91 2.313,0.945 -6.699,-3.334 -12.97,-6.946 -19.187,-11.112 -6.381,-4.277 6.352,5.327 1.573,1.283 -1.207,-1.022 -2.432,-2.015 -3.619,-3.062 -2.74,-2.416 -5.366,-4.961 -7.868,-7.621 -0.911,-0.968 -7.455,-7.385 -7.069,-8.233 -0.177,0.388 6.327,8.539 1.943,2.333 -0.889,-1.259 -1.754,-2.534 -2.596,-3.825 -3.94,-6.035 -7.235,-12.382 -10.252,-18.918 -2.456,-5.321 3.426,8.753 1.256,2.919 -0.537,-1.444 -1.103,-2.876 -1.62,-4.327 -1.208,-3.387 -2.292,-6.818 -3.255,-10.282 -1.928,-6.938 -3.333,-13.994 -4.341,-21.122 l 1.286,9.571 c -2,-15.149 -1.996,-30.416 0.035,-45.561 l -1.286,9.57 c 0.987,-6.878 2.524,-13.606 4.812,-20.175 0.558,-1.599 0.979,-3.647 1.897,-5.047 -1.003,1.53 -3.639,8.242 -1.107,2.802 1.405,-3.022 2.929,-5.987 4.561,-8.892 1.787,-3.184 3.703,-6.296 5.727,-9.335 1.967,-2.954 9.935,-11.942 1.877,-3.038 4.631,-5.117 8.838,-10.497 13.765,-15.367 2.27,-2.244 4.601,-4.427 6.996,-6.538 2.623,-2.311 12.22,-9.023 1.807,-1.818 4.922,-3.406 9.675,-6.913 14.907,-9.854 2.261,-1.271 4.58,-2.401 6.902,-3.557 5.232,-2.604 -8.842,3.402 -3.75,1.558 1.173,-0.425 2.332,-0.872 3.519,-1.258 6.207,-2.015 12.688,-3.192 19.137,-4.1 -3.19,0.428 -6.38,0.857 -9.57,1.285 13.839,-1.772 27.784,-1.775 41.62,0.037 -3.19,-0.429 -6.38,-0.858 -9.57,-1.286 7.367,1.066 14.66,2.594 21.719,4.988 1.683,0.571 3.314,1.257 4.986,1.851 -10.394,-3.694 -4.896,-2.08 -2.334,-0.768 2.392,1.225 4.712,2.593 6.963,4.06 3.016,1.965 10.052,8.443 0.209,-0.186 1.887,1.655 3.853,3.208 5.704,4.909 4.169,3.83 8.058,7.963 11.687,12.308 0.769,0.922 1.496,1.883 2.277,2.795 -7.7,-8.988 -3.821,-5.005 -2.119,-2.676 1.713,2.345 3.357,4.741 4.93,7.182 3.117,4.838 5.958,9.857 8.477,15.032 0.618,1.271 1.195,2.558 1.794,3.838 2.383,5.093 -3.543,-8.999 -1.459,-3.466 0.961,2.551 1.925,5.089 2.75,7.688 1.561,4.919 2.736,9.931 3.495,15.035 -0.429,-3.19 -0.858,-6.38 -1.286,-9.57 0.717,5.414 0.904,10.807 0.253,16.238 0.429,-3.19 0.858,-6.38 1.286,-9.57 -0.254,1.777 -0.565,3.538 -1.02,5.276 -1.178,4.505 -4.2,6.649 1.57,-2.735 -0.782,1.272 -1.462,2.699 -2.173,4.018 -2.329,4.318 3.293,-4.219 3.559,-4.407 -0.64,0.454 -1.15,1.341 -1.697,1.908 -0.599,0.622 -1.275,1.169 -1.872,1.788 -2.63,2.731 4.532,-3.797 4.792,-3.661 -0.23,-0.12 -4.232,2.482 -4.766,2.83 -4.048,2.638 7.652,-2.775 4.794,-2.007 -0.994,0.268 -1.96,0.685 -2.953,0.975 -1.179,0.344 -2.373,0.629 -3.571,0.899 -7.565,1.7 -15.315,2.7 -22.993,3.732 3.19,-0.428 6.381,-0.857 9.571,-1.286 -43.753,5.829 -87.936,8.854 -132.008,10.912 -64.239,3 -128.66,3.267 -192.895,0.027 -39.293,-1.982 -78.524,-5.333 -117.525,-10.54 3.19,0.429 6.38,0.858 9.57,1.286 -26.276,-3.552 -52.426,-7.963 -78.349,-13.551 -18.362,-3.958 -39.799,5.454 -44.284,25.144 -4.13,18.131 5.457,40.04 25.144,44.284"
   style="fill:#e4a3c9;fill-rule:nonzero"
   id="path40" />
            </g>
        </g>
        <g
   transform="scale(4.16667)"
   id="g50">
            <g
   transform="translate(936.248,1587.25)"
   id="g48">
                <path
   d="m 0,-667.631 c -10.341,-20.507 -26.874,-36.832 -45.077,-50.372 -21.38,-15.904 -47.181,-23.994 -73.504,-26.281 -30.917,-2.685 -64.155,7.031 -90.659,22.632 -26.037,15.325 -46.24,41.886 -52.385,71.682 -2.919,14.154 -3.001,27.541 -2.688,41.834 0.332,15.195 1,30.382 1.933,45.551 1.851,30.102 4.746,60.13 8.132,90.095 6.497,57.509 14.898,114.797 20.675,172.389 6.045,60.273 9.35,121.403 1.337,181.657 0.464,-3.456 0.929,-6.912 1.393,-10.368 -3.015,22.086 -6.86,44.566 -15.461,65.238 1.31,-3.105 2.621,-6.211 3.931,-9.316 -7.908,18.459 -18.835,35.62 -31.004,51.554 2.033,-2.631 4.066,-5.262 6.098,-7.893 -6.101,7.783 -13.011,14.779 -20.776,20.907 2.631,-2.033 5.262,-4.066 7.893,-6.099 -7.029,5.389 -14.562,9.923 -22.687,13.455 3.105,-1.311 6.211,-2.621 9.316,-3.932 -7.24,3.005 -14.677,5.101 -22.441,6.207 3.456,-0.464 6.912,-0.928 10.368,-1.393 -0.52,0.064 -1.04,0.128 -1.56,0.192 -10.718,1.317 -19.633,3.479 -27.577,11.423 -6.764,6.764 -11.858,17.862 -11.423,27.577 0.452,10.086 3.765,20.547 11.423,27.577 7.08,6.499 17.57,12.653 27.577,11.423 8.118,-0.998 16.259,-1.88 24.135,-4.15 8.183,-2.358 16.146,-5.808 23.79,-9.5 12.237,-5.912 23.528,-14.524 33.481,-23.672 10.325,-9.489 18.703,-20.931 26.727,-32.366 6.969,-9.93 13.485,-20.212 18.956,-31.051 11.843,-23.466 18.505,-47.758 22.685,-73.554 4.064,-25.087 6.658,-50.385 7.51,-75.784 3.315,-98.802 -14.492,-197.139 -25.731,-294.944 -3.368,-29.308 -6.304,-58.672 -8.28,-88.108 -0.975,-14.521 -1.719,-29.057 -2.169,-43.603 -0.37,-11.954 -1.384,-24.262 0.207,-36.161 -0.464,3.456 -0.929,6.912 -1.393,10.368 0.992,-6.633 2.755,-13.037 5.327,-19.232 -1.311,3.105 -2.621,6.211 -3.932,9.316 2.483,-5.698 5.575,-10.991 9.339,-15.939 -2.033,2.631 -4.065,5.262 -6.098,7.893 3.84,-4.85 8.183,-9.132 13.06,-12.935 l -7.893,6.098 c 7.28,-5.445 15.405,-9.488 23.748,-13.039 -3.105,1.311 -6.211,2.622 -9.316,3.932 10.197,-4.192 20.726,-7.235 31.652,-8.776 -3.456,0.465 -6.912,0.929 -10.368,1.394 9.08,-1.155 18.166,-1.239 27.254,-0.138 -3.455,-0.464 -6.911,-0.929 -10.367,-1.393 9.139,1.233 17.984,3.624 26.508,7.143 -3.106,-1.31 -6.211,-2.621 -9.317,-3.931 8.625,3.683 16.676,8.409 24.141,14.082 -2.631,-2.033 -5.262,-4.065 -7.893,-6.098 7.609,5.908 14.45,12.668 20.382,20.259 -2.033,-2.631 -4.066,-5.262 -6.099,-7.893 3.712,4.847 7.019,9.958 9.769,15.411 4.246,8.419 14.439,15.481 23.308,17.923 9.335,2.571 21.766,1.41 30.052,-3.932 C 4.662,-626.298 9.845,-648.107 0,-667.631"
   style="fill:#e4a3c9;fill-rule:nonzero"
   id="path46" />
            </g>
        </g>
        <g
   transform="scale(4.16667)"
   id="g56">
            <g
   transform="translate(1272.52,283.967)"
   id="g54">
                <path
   d="m 0,656.69 c -11.601,-9.59 -22.017,-20.894 -31.815,-32.266 -2.326,-2.699 -4.613,-5.432 -6.861,-8.196 -1.129,-1.389 -2.247,-2.785 -3.356,-4.19 -0.598,-0.757 -1.19,-1.52 -1.785,-2.28 -1.592,-2.032 2.334,3.077 2.05,2.655 -0.383,-0.57 -0.844,-1.101 -1.26,-1.648 -5.152,-6.776 -10.07,-13.729 -14.731,-20.85 -10.423,-15.925 -19.49,-32.688 -27.021,-50.168 -0.566,-1.314 -1.357,-3.413 1.13,2.68 -0.288,-0.705 -0.585,-1.407 -0.873,-2.112 -0.58,-1.418 -1.149,-2.84 -1.706,-4.267 -1.032,-2.643 -2.025,-5.302 -2.978,-7.975 -2.032,-5.699 -3.881,-11.464 -5.532,-17.285 -3.356,-11.836 -5.871,-23.895 -7.517,-36.086 0.238,1.772 0.476,3.544 0.714,5.317 -2.808,-21.342 -2.812,-42.937 0.018,-64.277 -0.238,1.772 -0.476,3.544 -0.714,5.316 2.162,-15.837 5.826,-31.435 10.882,-46.597 1.32,-3.959 2.732,-7.887 4.231,-11.782 0.766,-1.99 1.554,-3.971 2.364,-5.942 0.53,-1.29 2.309,-4.807 -0.346,0.798 0.621,-1.311 1.156,-2.67 1.747,-3.995 3.665,-8.215 7.685,-16.281 12.072,-24.136 4.141,-7.415 8.626,-14.645 13.533,-21.579 0.91,-1.285 1.834,-2.559 2.773,-3.823 0.552,-0.742 1.124,-1.471 1.672,-2.217 -3.855,5.244 -1.798,2.322 -0.888,1.181 2.356,-2.955 4.802,-5.838 7.348,-8.631 4.299,-4.715 8.881,-9.177 13.777,-13.271 1.4,-1.17 6.19,-4.718 0.005,-0.118 1.156,-0.86 2.303,-1.732 3.48,-2.565 2.447,-1.733 4.963,-3.369 7.549,-4.889 2.454,-1.443 4.969,-2.783 7.541,-4.003 0.576,-0.273 1.159,-0.532 1.737,-0.801 3.761,-1.75 -4.688,1.857 -1.888,0.779 1.342,-0.517 2.675,-1.051 4.034,-1.526 5.166,-1.806 10.496,-3.082 15.92,-3.812 -1.772,0.238 -3.545,0.476 -5.317,0.714 6.538,-0.831 13.124,-0.827 19.659,0.038 -1.773,-0.238 -3.545,-0.476 -5.317,-0.715 3.496,0.489 6.955,1.202 10.351,2.167 1.596,0.454 3.177,0.961 4.74,1.517 0.738,0.263 1.472,0.537 2.202,0.822 0.48,0.187 0.961,0.427 1.451,0.584 -0.195,-0.063 -5.746,-2.529 -2.863,-1.194 3.069,1.421 6.07,2.942 8.965,4.696 1.403,0.851 2.781,1.743 4.131,2.675 0.71,0.49 1.413,0.991 2.108,1.503 0.277,0.205 0.551,0.416 0.829,0.619 2.222,1.626 -4.451,-3.532 -2.412,-1.859 5.428,4.454 9.833,9.441 14.49,14.642 0.406,0.453 -3.625,-4.822 -2.189,-2.822 0.25,0.348 0.513,0.687 0.765,1.033 0.454,0.623 0.901,1.251 1.338,1.886 1.019,1.478 1.993,2.987 2.919,4.525 1.713,2.844 3.262,5.786 4.632,8.81 1.938,4.278 -1.882,-4.768 -0.617,-1.504 0.306,0.788 0.62,1.574 0.911,2.368 0.639,1.742 1.219,3.507 1.736,5.289 1.077,3.712 1.867,7.497 2.383,11.326 -0.238,-1.772 -0.476,-3.544 -0.714,-5.317 0.789,6.167 0.814,12.384 0,18.55 0.238,-1.773 0.477,-3.545 0.715,-5.317 -0.779,5.569 -2.338,10.805 -4.293,16.06 2.17,-5.833 1.48,-3.338 0.181,-0.687 -0.669,1.366 -1.385,2.709 -2.145,4.026 -1.512,2.624 -3.628,4.965 -5.07,7.592 -0.336,0.613 3.401,-4.271 2.251,-2.926 -0.248,0.289 -0.478,0.595 -0.721,0.89 -0.49,0.596 -0.989,1.185 -1.497,1.765 -1.103,1.261 -2.249,2.484 -3.429,3.673 -2.609,2.628 -5.373,5.076 -8.234,7.424 -3.139,2.576 3.315,-2.437 1.408,-1.081 -0.715,0.509 -1.414,1.04 -2.132,1.545 -1.41,0.99 -2.849,1.94 -4.315,2.845 -2.924,1.805 -5.958,3.432 -9.086,4.855 -0.278,0.126 -0.562,0.243 -0.837,0.375 -2.681,1.287 5.308,-2.118 2.539,-1.071 -0.846,0.32 -1.682,0.662 -2.531,0.971 -1.679,0.61 -3.379,1.161 -5.096,1.651 -3.47,0.989 -7.004,1.71 -10.578,2.196 1.772,-0.238 3.544,-0.477 5.317,-0.715 -6.497,0.832 -13.039,0.813 -19.536,-0.015 1.773,0.239 3.545,0.477 5.317,0.715 -4.323,-0.584 -8.589,-1.5 -12.765,-2.761 -1.976,-0.597 -3.93,-1.267 -5.857,-2.005 -0.555,-0.213 -1.103,-0.445 -1.658,-0.655 -2.366,-0.893 3.454,1.565 3.126,1.325 -0.97,-0.71 -2.456,-1.092 -3.548,-1.619 -4.14,-1.996 -8.129,-4.302 -11.944,-6.865 -1.741,-1.17 -3.402,-2.443 -5.107,-3.662 6.271,4.482 2.243,1.739 0.804,0.55 -1.077,-0.889 -2.137,-1.798 -3.179,-2.727 -3.619,-3.224 -7.03,-6.681 -10.225,-10.325 -1.496,-1.706 -2.931,-3.461 -4.346,-5.235 -1.964,-2.462 3.325,4.402 1.447,1.863 -0.413,-0.558 -0.83,-1.113 -1.238,-1.674 -0.823,-1.131 -1.629,-2.275 -2.416,-3.432 -2.965,-4.355 -5.675,-8.883 -8.133,-13.543 -1.211,-2.295 -2.359,-4.621 -3.448,-6.976 -0.58,-1.253 -1.122,-2.522 -1.687,-3.781 3.178,7.082 0.648,1.518 -0.006,-0.159 -4.895,-12.558 -8.134,-25.7 -9.971,-39.044 0.239,1.772 0.477,3.545 0.715,5.317 -2.408,-18.111 -2.156,-36.437 0.253,-54.534 -0.238,1.772 -0.476,3.544 -0.714,5.316 2.122,-15.428 5.763,-30.608 10.703,-45.375 1.182,-3.53 2.435,-7.035 3.756,-10.516 0.81,-2.135 1.646,-4.261 2.507,-6.376 0.29,-0.714 0.586,-1.425 0.879,-2.137 0.818,-1.956 0.598,-1.437 -0.66,1.557 0.302,-0.71 0.607,-1.418 0.913,-2.126 3.269,-7.547 6.768,-14.993 10.508,-22.317 6.866,-13.447 14.541,-26.483 23.038,-38.965 1.976,-2.903 3.996,-5.776 6.061,-8.616 0.919,-1.264 1.846,-2.522 2.782,-3.773 1.029,-1.376 5.331,-6.754 0.791,-1.087 4.072,-5.082 8.141,-10.147 12.441,-15.04 7.986,-9.089 16.483,-17.731 25.458,-25.844 3.947,-3.567 7.985,-7.032 12.113,-10.387 1.774,-1.441 3.58,-2.842 5.37,-4.263 -6.127,4.864 -1.814,1.406 -0.351,0.309 1.035,-0.777 2.076,-1.547 3.122,-2.31 12.243,-8.93 25.192,-16.954 38.798,-23.64 2.563,-1.259 5.15,-2.47 7.763,-3.62 0.529,-0.233 1.061,-0.461 1.591,-0.691 3.114,-1.354 -5.818,2.409 -2.947,1.244 0.881,-0.358 1.76,-0.721 2.645,-1.069 1.625,-0.637 3.26,-1.271 4.926,-1.795 9.966,-3.134 17.378,-14.066 13.969,-24.602 -3.239,-10.009 -13.915,-17.33 -24.603,-13.969 -7.618,2.396 -14.996,5.836 -22.174,9.301 -15.27,7.373 -29.723,16.443 -43.279,26.612 -49.319,36.997 -87.462,86.818 -112.101,143.276 -14.741,33.778 -24.665,69.302 -25.247,106.377 -0.472,30.124 5.546,59.942 18.256,87.255 19.681,42.294 62.236,79.641 111.338,77.044 25.363,-1.342 48.502,-12.57 66.569,-30.24 16.194,-15.839 25.757,-36.553 27.21,-59.128 2.523,-39.222 -23.274,-79.458 -58.615,-95.763 -20.773,-9.584 -43.393,-12.328 -65.724,-6.655 -25.285,6.422 -47.41,23.041 -64.161,42.607 -23.73,27.718 -40.789,61.285 -52.031,95.873 -9.858,30.329 -14.452,62.84 -12.785,94.713 2.797,53.49 21.849,104.989 51.056,149.613 17.093,26.116 37.321,51.021 60.615,71.909 1.118,1.002 2.24,2.004 3.398,2.961 4.196,3.469 8.505,5.858 14.142,5.858 4.905,0 10.765,-2.179 14.142,-5.858 6.758,-7.362 8.611,-21.166 0,-28.284"
   style="fill:#fbfbf1;fill-rule:nonzero"
   id="path52" />
            </g>
        </g>
    </g>
</svg>
